<?xml version="1.0" encoding="utf-8"?>
<!-- Generator: Adobe Illustrator 15.1.0, SVG Export Plug-In . SVG Version: 6.00 Build 0)  -->
<!DOCTYPE svg PUBLIC "-//W3C//DTD SVG 1.1//EN" "http://www.w3.org/Graphics/SVG/1.1/DTD/svg11.dtd">
<svg version="1.1" id="Camada_2" xmlns="http://www.w3.org/2000/svg" xmlns:xlink="http://www.w3.org/1999/xlink" x="0px" y="0px"
	 width="1440px" height="900px" viewBox="0 0 1440 900" enable-background="new 0 0 1440 900" xml:space="preserve">
<path fill="#5D1776" stroke="#000000" stroke-width="2" stroke-miterlimit="10" d="M449.5,217L407,373h8l-10.5,9l45,22l8,25v25
	L431,490.5h13.5c0,0-32,108-19.5,122.5c10.5-4,10.5-4,10.5-4s23,137.5,229.5,121c2,0.5,6,20.5,18.5,27.5c0,0-35,70.5-34,75.5
	c0.5-1.5-46,0.5-60.5,23s19-7.5,19-7.5L583,876c0,0,61-39.5,69.5-32s21-0.5,21-0.5l7.5,22l5.5-21c0,0-22-13-24.5-11s30-74.5,30-74.5
	s21.5,6,16-38.5c42-11,42-11,42-11l-6-8.5c0,0,23-13,43.5-0.5s74,43,77.5,44s-6-12-4.5-18.5s44.5,26,117.5,2c0,0.5-347-240-347-240
	l211.5-148l-151.25,33L996.5,243L742,270l134-98l-145.5,55l19.5-42l-105.5,73.5L762.5,0l-213,219L546,66l-91,207L449.5,217z"/>
<path fill="#5D1776" stroke="#000000" stroke-width="2" stroke-miterlimit="10" d="M605.544,730.414V738H602.5l-63,65l7.5,22.5
	c0,0-27-16.5-48.5,14.5c-0.5-0.5-4-8.499,11.167-22.499C509.5,817.334,462,829.5,452.333,845.667c0,0-9.167-9.166,15.333-25.833
	c63.5-20.333,63.5-20.333,63.5-20.333l59.333-61.167l-0.625-9.497"/>
<g id="Camada_3">
	<path fill="#201C10" stroke="#000000" stroke-width="2" stroke-miterlimit="10" d="M744,701L571.667,544.333l404.409,182.396
		c0,0-67.409,16.27-184.409-29.396c0.333-0.333-1.601,4.722-1.601,4.722"/>
	<path fill="#201C10" stroke="#000000" stroke-width="2" stroke-miterlimit="10" d="M435.125,484.818l14.25,1.682
		c0,0,29.625-65.75,40.625-56.375c-0.25,0.125-4,35.125-4,35.125L582,366l-13.333-24.667l-51.542,35.792l-16-1.75
		c0,0,32.375-2.25,20.75-29.25c-9.375-9.75-9.375-9.75-9.375-9.75l62.75-69.5l-18,6.375l1.75-11.625l-42.75,27.125l27-47.625
		l-28,22.5L528,222.25L513.375,237l2-19.875c0,0-49.125,45.125-49.375,103.625c0,0-41.25,19.5-46,35.25c0,0,41.25-19.5,43.5-16
		c0,0,29,43,22,56c0,0-8.25-1.25-10.25,2.25l-0.5,16L449.5,404"/>
	<path fill="#201C10" stroke="#000000" stroke-width="2" stroke-miterlimit="10" d="M415,373c0,0,45.75,2.75,50-2
		c0,0,18,9.75,15.75,14.25c0,0-6.25,9.25-11.75,2.25c0,0-6.25-3.75-11-8c0,0-43.684-3.59-47.967,5.205"/>
	<path fill="#201C10" stroke="#000000" stroke-width="2" stroke-miterlimit="10" d="M522.822,348.541l-9.322,2.209
		c0,0,2.75,7.75,0,12.75c0,0-9,9.75-17.25-4.25l-3.25-1.578c0,0-3.5,10.578,8.125,17.703"/>
</g>
</svg>
